<svg width="85" height="85" viewBox="0 0 85 85" fill="none" xmlns="http://www.w3.org/2000/svg">
<rect width="85" height="85" rx="11" fill="#EAE7F7"/>
<path d="M37.494 25.526C37.494 23.0087 36.0433 21.75 33.142 21.75C31.5633 21.75 29.942 22.0913 28.278 22.774L25.91 15.99C28.6407 14.4967 31.9047 13.75 35.702 13.75C39.67 13.75 42.6567 14.8807 44.662 17.142C46.6247 19.446 47.606 22.6673 47.606 26.806L46.41 64.25L44.662 59.75L44.662 63.75L39.41 65.25L37.494 25.526Z" fill="#7950F2"/>
<path d="M47.506 59.474C47.506 61.9913 48.9567 63.25 51.858 63.25C53.4367 63.25 55.058 62.9087 56.722 62.226L59.09 69.01C56.3593 70.5033 53.0953 71.25 49.298 71.25C45.33 71.25 42.3433 70.1193 40.338 67.858C38.3753 65.554 37.394 62.3327 37.394 58.194L37.624 20.212L40.338 22.674L34.91 17.75L44.91 22.674L47.506 59.474Z" fill="#7950F2"/>
</svg>
