<svg width="306" height="106" viewBox="0 0 306 106" fill="none" xmlns="http://www.w3.org/2000/svg">
<rect width="305.18" height="105.5" rx="9" fill="#EAE7F7"/>
<path d="M28.092 36.758H35.308V61.53H48.508L47.804 67.25H28.092V36.758ZM51.3948 36.758H58.6108V61.53H71.8108L71.1068 67.25H51.3948V36.758Z" fill="black"/>
<path d="M83.8056 43.094C87.355 43.094 90.127 44.2233 92.1216 46.482C94.1456 48.7113 95.1576 51.718 95.1576 55.502C95.1576 59.4327 94.1603 62.498 92.1656 64.698C90.171 66.898 87.3843 67.998 83.8056 67.998C80.227 67.998 77.4403 66.9127 75.4456 64.742C73.451 62.542 72.4536 59.4767 72.4536 55.546C72.4536 53.0527 72.8936 50.882 73.7736 49.034C74.683 47.1567 75.9883 45.7047 77.6896 44.678C79.4203 43.622 81.459 43.094 83.8056 43.094ZM83.8056 48.242C82.3683 48.242 81.3123 48.8287 80.6376 50.002C79.963 51.146 79.6256 52.994 79.6256 55.546C79.6256 58.1273 79.963 60.0047 80.6376 61.178C81.3123 62.322 82.3683 62.894 83.8056 62.894C85.243 62.894 86.299 62.3073 86.9736 61.134C87.6483 59.9607 87.9856 58.0833 87.9856 55.502C87.9856 52.9793 87.6483 51.146 86.9736 50.002C86.299 48.8287 85.243 48.242 83.8056 48.242ZM109.396 62.498C110.276 62.498 111.127 62.3367 111.948 62.014C112.77 61.662 113.65 61.1633 114.588 60.518L117.668 64.918C116.554 65.8567 115.263 66.6047 113.796 67.162C112.33 67.7193 110.731 67.998 109 67.998C106.507 67.998 104.351 67.4847 102.532 66.458C100.743 65.4313 99.3644 63.994 98.3964 62.146C97.4284 60.298 96.9444 58.1567 96.9444 55.722C96.9444 53.2873 97.4431 51.1167 98.4404 49.21C99.4378 47.3033 100.846 45.8073 102.664 44.722C104.512 43.6367 106.668 43.094 109.132 43.094C110.863 43.094 112.418 43.3433 113.796 43.842C115.175 44.3113 116.466 45.0447 117.668 46.042L114.676 50.222C112.975 49.0487 111.23 48.462 109.44 48.462C105.95 48.462 104.204 50.882 104.204 55.722C104.204 58.1567 104.659 59.902 105.568 60.958C106.478 61.9847 107.754 62.498 109.396 62.498ZM139.959 60.518C139.959 61.3687 140.077 61.9993 140.311 62.41C140.546 62.8207 140.942 63.1287 141.499 63.334L140.047 67.91C138.639 67.7633 137.466 67.4553 136.527 66.986C135.589 66.4873 134.855 65.7687 134.327 64.83C133.447 65.8567 132.333 66.6487 130.983 67.206C129.634 67.734 128.197 67.998 126.671 67.998C124.266 67.998 122.345 67.3233 120.907 65.974C119.47 64.5953 118.751 62.8207 118.751 60.65C118.751 58.1273 119.749 56.1767 121.743 54.798C123.738 53.39 126.539 52.686 130.147 52.686H133.271V51.85C133.271 49.4447 131.731 48.242 128.651 48.242C127.859 48.242 126.862 48.3593 125.659 48.594C124.486 48.7993 123.342 49.0927 122.227 49.474L120.643 44.854C122.139 44.2967 123.694 43.8713 125.307 43.578C126.95 43.2553 128.431 43.094 129.751 43.094C136.557 43.094 139.959 45.8513 139.959 51.366V60.518ZM129.047 63.026C129.839 63.026 130.631 62.806 131.423 62.366C132.245 61.8967 132.861 61.266 133.271 60.474V56.646H131.555C127.801 56.646 125.923 57.8193 125.923 60.166C125.923 61.0753 126.187 61.7793 126.715 62.278C127.273 62.7767 128.05 63.026 129.047 63.026Z" fill="#7950F2"/>
<path d="M155.584 35.776C155.584 33.2587 154.133 32 151.232 32C149.653 32 148.032 32.3413 146.368 33.024L144 26.24C146.731 24.7467 149.995 24 153.792 24C157.76 24 160.747 25.1307 162.752 27.392C164.715 29.696 165.696 32.9173 165.696 37.056L164.5 74.5L162.752 70L162.752 74L157.5 75.5L155.584 35.776Z" fill="#020006"/>
<path d="M165.596 69.724C165.596 72.2413 167.047 73.5 169.948 73.5C171.527 73.5 173.148 73.1586 174.812 72.476L177.18 79.26C174.449 80.7533 171.185 81.5 167.388 81.5C163.42 81.5 160.433 80.3693 158.428 78.108C156.465 75.804 155.484 72.5827 155.484 68.444L155.714 30.462L158.428 32.924L153 28L163 32.924L165.596 69.724Z" fill="#020006"/>
<path d="M192.668 62.498C193.548 62.498 194.399 62.3367 195.22 62.014C196.041 61.662 196.921 61.1633 197.86 60.518L200.94 64.918C199.825 65.8567 198.535 66.6047 197.068 67.162C195.601 67.7193 194.003 67.998 192.272 67.998C189.779 67.998 187.623 67.4847 185.804 66.458C184.015 65.4313 182.636 63.994 181.668 62.146C180.7 60.298 180.216 58.1567 180.216 55.722C180.216 53.2873 180.715 51.1167 181.712 49.21C182.709 47.3033 184.117 45.8073 185.936 44.722C187.784 43.6367 189.94 43.094 192.404 43.094C194.135 43.094 195.689 43.3433 197.068 43.842C198.447 44.3113 199.737 45.0447 200.94 46.042L197.948 50.222C196.247 49.0487 194.501 48.462 192.712 48.462C189.221 48.462 187.476 50.882 187.476 55.722C187.476 58.1567 187.931 59.902 188.84 60.958C189.749 61.9847 191.025 62.498 192.668 62.498ZM223.231 60.518C223.231 61.3687 223.348 61.9993 223.583 62.41C223.817 62.8207 224.213 63.1287 224.771 63.334L223.319 67.91C221.911 67.7633 220.737 67.4553 219.799 66.986C218.86 66.4873 218.127 65.7687 217.599 64.83C216.719 65.8567 215.604 66.6487 214.255 67.206C212.905 67.734 211.468 67.998 209.943 67.998C207.537 67.998 205.616 67.3233 204.179 65.974C202.741 64.5953 202.023 62.8207 202.023 60.65C202.023 58.1273 203.02 56.1767 205.015 54.798C207.009 53.39 209.811 52.686 213.419 52.686H216.543V51.85C216.543 49.4447 215.003 48.242 211.923 48.242C211.131 48.242 210.133 48.3593 208.931 48.594C207.757 48.7993 206.613 49.0927 205.499 49.474L203.915 44.854C205.411 44.2967 206.965 43.8713 208.579 43.578C210.221 43.2553 211.703 43.094 213.023 43.094C219.828 43.094 223.231 45.8513 223.231 51.366V60.518ZM212.319 63.026C213.111 63.026 213.903 62.806 214.695 62.366C215.516 61.8967 216.132 61.266 216.543 60.474V56.646H214.827C211.072 56.646 209.195 57.8193 209.195 60.166C209.195 61.0753 209.459 61.7793 209.987 62.278C210.544 62.7767 211.321 63.026 212.319 63.026Z" fill="#7950F2"/>
<path d="M277.088 36.258H269.872V61.03H256.672L257.376 66.75H277.088V36.258ZM250.705 36.258H243.489V61.03H230.289L230.993 66.75H250.705V36.258Z" fill="black"/>
</svg>
